<?xml version="1.0" encoding="UTF-8" standalone="no"?>
<!DOCTYPE svg PUBLIC "-//W3C//DTD SVG 1.1//EN" "http://www.w3.org/Graphics/SVG/1.1/DTD/svg11.dtd">
<svg width="95%" height="95%" viewbox="0 0 1493 1101" version="1.1" xml:space="preserve" style="fill-rule:evenodd;clip-rule:evenodd;stroke-linecap:round;stroke-miterlimit:1.5;">
    <g transform="matrix(3.125,0,0,3.125,0,0)">
        <g transform="matrix(1,0,0,1,-62.5036,-2.61547)">
            <path d="M411.318,154.456l1.218,-1.705l-0.67,-2.496l-14.476,5.215l1.486,2.836l1.597,0" style="fill:none;stroke:white;stroke-width:0.83px;"/>
        </g>
        <g transform="matrix(1.02886,0,0,1.02886,-72.1792,-12.5499)">
            <path d="M168.129,266.932l-13.193,14.837" style="fill:none;stroke:white;stroke-width:0.61px;stroke-linecap:square;"/>
        </g>
        <g transform="matrix(1.02886,0,0,1.02886,-72.1792,-12.5499)">
            <path d="M191.208,241.247l-20.389,22.82" style="fill:none;stroke:white;stroke-width:0.61px;"/>
        </g>
        <g transform="matrix(1.02886,0,0,1.02886,-72.1792,-12.5499)">
            <path d="M181.023,231.555l-8.837,15.797" style="fill:none;stroke:white;stroke-width:0.61px;stroke-linecap:square;"/>
        </g>
        <g transform="matrix(1.02886,0,0,1.02886,-72.1792,-12.5499)">
            <path d="M169.375,224.691l-26.874,45.205" style="fill:none;stroke:white;stroke-width:0.61px;stroke-linecap:square;"/>
        </g>
        <g transform="matrix(1.02886,0,0,1.02886,-72.1792,-12.5499)">
            <path d="M156.476,220.605l-14.419,49.882" style="fill:none;stroke:white;stroke-width:0.61px;"/>
        </g>
        <g transform="matrix(1.02886,0,0,1.02886,-72.1792,-12.5499)">
            <path d="M141.521,219.479l6.161,48.597" style="fill:none;stroke:white;stroke-width:0.61px;stroke-linecap:square;"/>
        </g>
        <g transform="matrix(1.02886,0,0,1.02886,-72.1792,-12.5499)">
            <path d="M128.476,221.725l21.306,44.81" style="fill:none;stroke:white;stroke-width:0.61px;stroke-linecap:square;"/>
        </g>
        <g transform="matrix(1.02886,0,0,1.02886,-72.1792,-12.5499)">
            <path d="M180.327,95.284c-4.547,0.018 -8.635,-2.066 -12.491,-5.214l-7.637,-2.93c-4.707,0.201 -7.511,-1.078 -7.491,-4.793c0.017,-3.229 -0.526,-9.017 3.814,-9.442c2.88,-0.282 13.034,-0.542 19.707,1.353c5.426,1.541 25.932,1.424 39.475,1.138c13.339,0 14.579,7.758 15.69,11.744c0,0 -2.867,0.646 -7.918,0.79c-6.5,0.186 -12.034,0.188 -17.459,1.117c-3.954,0.498 -7.935,1.309 -11.292,3.344" style="fill:none;stroke:white;stroke-width:0.61px;stroke-linecap:square;"/>
        </g>
        <g transform="matrix(1.02886,0,0,1.02886,-72.1792,-12.5499)">
            <path d="M174.701,94.225c0.997,1.827 3.751,2.582 5.966,2.658l15.31,-1.025c2.116,-0.302 4.221,-0.586 6.4,-1.633c3.177,-1.527 6.338,-4.086 8.471,-5.785" style="fill:none;stroke:white;stroke-width:0.61px;stroke-linecap:square;"/>
        </g>
        <g transform="matrix(1.02886,0,0,1.02886,-72.1792,-12.5499)">
            <path d="M215.336,88.165c-1.922,1.404 -7.559,5.355 -9.319,6.328c-6.73,3.722 -9.918,3.063 -12.008,3.283l0,1.569l6.796,0l33.81,92.43l-7.764,2.693l-33.559,-90.66l-7.263,0l-4.091,-5.289" style="fill:none;stroke:white;stroke-width:0.61px;stroke-linecap:square;"/>
        </g>
        <g transform="matrix(1.02886,0,0,1.02886,-72.1792,-12.5499)">
            <path d="M226.851,194.468l-1.155,0.476l0.388,0.949l11.017,-3.951l-0.362,-0.904l-2.124,0.737" style="fill:none;stroke:white;stroke-width:0.61px;stroke-linecap:square;"/>
        </g>
        <g transform="matrix(1.02886,0,0,1.02886,-72.1792,-12.5499)">
            <path d="M226.084,195.893l-3.118,1.176l0.392,1.323l2.426,-0.955l0.563,1.543l-2.303,0.956l0.367,0.882l16.234,-6.635c0,0 1.158,-0.208 0.607,-2.241c-0.417,-1.537 -1.722,-0.876 -1.722,-0.876l-2.429,0.876" style="fill:none;stroke:white;stroke-width:0.61px;stroke-linecap:square;"/>
        </g>
        <g transform="matrix(1.02886,0,0,1.02886,-72.1792,-12.5499)">
            <path d="M137.892,283.687l-6.157,0.778l0.533,-4.055l4.535,-1.974l9.978,-9.338c28.371,-25.021 56.29,-47.306 82.811,-61.207l-1.744,-8.477l9.253,-3.782l4.881,11.159l152.964,-38.94c1.084,-0.435 3.247,-2.156 2.912,-3.765l12.331,-4.781l9.629,24.328l-12.877,4.321c-0.757,-1.876 -1.746,-1.727 -4.632,-1.572l-12.219,2.836l-5.954,0l-86.536,24.33c-7.058,7.933 -11.867,15.456 -15.532,24.614" style="fill:none;stroke:white;stroke-width:0.61px;stroke-linecap:square;"/>
        </g>
        <g transform="matrix(1,0,0,1,-62.5036,-2.61547)">
            <path d="M409.009,183.443l-0.555,0.22l0.933,2.679l14.401,-4.982l-0.801,-2.582l-0.73,0.219" style="fill:none;stroke:white;stroke-width:0.83px;stroke-linecap:butt;"/>
        </g>
        <g transform="matrix(1,0,0,1,-62.5036,-2.61547)">
            <path d="M410.72,185.881l4.729,10.698c4.988,17.027 22.04,45.285 43.13,80.131l4.691,7.388c2.329,4.125 9.486,0.671 6.577,-4.596l-3.286,-4.23c-8.407,-17.468 -33.908,-70.29 -40.477,-83.613l-3.097,-10.022" style="fill:none;stroke:white;stroke-width:0.83px;stroke-linecap:butt;"/>
        </g>
        <g transform="matrix(1,0,0,1,-62.5036,-2.61547)">
            <path d="M309.35,184.988l0,6.355l-8.983,2.459l0.804,7.288l13.553,-1.999c3.334,-0.582 3.44,2.626 4.396,4.328l12.707,-3.572c-4.701,-8 -10.5,-11.192 -22.477,-8.504" style="fill:none;stroke:white;stroke-width:0.83px;stroke-linecap:butt;"/>
        </g>
        <g transform="matrix(1,0,0,1,-62.5036,-2.61547)">
            <path d="M309.35,199.909l0,6.256" style="fill:none;stroke:white;stroke-width:0.83px;stroke-linecap:butt;"/>
        </g>
        <g transform="matrix(1.02886,0,0,1.02886,-72.1792,-12.5499)">
            <path d="M272.435,235.632c2.439,-6.727 5.353,-12.316 10.524,-18.227l-1.384,-2.275l-26.218,6.684l-3.711,0.984c-1.994,1.004 -2.688,2.943 -2.013,4.703l4.686,11.274" style="fill:none;stroke:white;stroke-width:0.61px;stroke-linecap:square;"/>
        </g>
        <g transform="matrix(1.02886,0,0,1.02886,-72.1792,-12.5499)">
            <path d="M243.758,242.293l-11.14,-28.547c-28.629,16.061 -52.859,35.389 -78.363,58.563c-7.655,6.957 -0.565,11.306 6.493,10.171l74.708,-14.98" style="fill:none;stroke:white;stroke-width:0.61px;stroke-linecap:square;"/>
        </g>
        <g transform="matrix(1.02886,0,0,1.02886,-72.1792,-12.5499)">
            <path d="M236.617,277.087l-89.035,14.458l-12.86,0.816l-2.454,-3.948l6.774,-1.359" style="fill:none;stroke:white;stroke-width:0.61px;stroke-linecap:square;"/>
        </g>
        <g transform="matrix(1.02886,0,0,1.02886,-72.1792,-12.5499)">
            <path d="M223.807,198.215l0.604,1.569" style="fill:none;stroke:white;stroke-width:0.61px;stroke-linecap:square;"/>
        </g>
        <g transform="matrix(1.02886,0,0,1.02886,-72.1792,-12.5499)">
            <path d="M180.637,98.599l13.372,-0.823" style="fill:none;stroke:white;stroke-width:0.61px;stroke-linecap:square;"/>
        </g>
        <g transform="matrix(1.02886,0,0,1.02886,-72.1792,-12.5499)">
            <path d="M171.054,92.391c2.259,3.957 4.873,6.213 9.613,6.208" style="fill:none;stroke:white;stroke-width:0.61px;stroke-linecap:square;"/>
        </g>
        <g transform="matrix(1.02886,0,0,1.02886,-72.1792,-12.5499)">
            <path d="M194.009,105.744l7.991,-3.115" style="fill:none;stroke:white;stroke-width:0.61px;stroke-linecap:square;"/>
        </g>
        <g transform="matrix(1.02886,0,0,1.02886,-72.1792,-12.5499)">
            <path d="M153.973,74.258c9.323,1.455 15.851,4.533 24.444,7.006c1.755,0.505 11.477,2.444 14.875,2.449c5.999,0.007 9.529,2.476 11.19,5.545" style="fill:none;stroke:white;stroke-width:0.61px;stroke-linecap:square;"/>
        </g>
        <g transform="matrix(1.02886,0,0,1.02886,-72.1792,-12.5499)">
            <path d="M180.327,95.284c4.844,0.098 9.652,-0.656 14.398,-2.893" style="fill:none;stroke:white;stroke-width:0.61px;stroke-linecap:square;"/>
        </g>
        <g transform="matrix(1.02886,0,0,1.02886,-72.1792,-12.5499)">
            <path d="M218.952,279.895c-0.007,6.023 -0.734,11.88 -2.118,17.482" style="fill:none;stroke:white;stroke-width:0.61px;stroke-linecap:square;"/>
        </g>
        <g transform="matrix(1.02886,0,0,1.02886,-72.1792,-12.5499)">
            <path d="M216.538,298.603c-8.331,31.823 -37.298,55.323 -71.711,55.323c-40.91,0 -74.125,-33.214 -74.125,-74.125c0,-40.911 33.215,-74.125 74.125,-74.125c20.688,0 39.408,8.493 52.859,22.18" style="fill:none;stroke:white;stroke-width:0.61px;stroke-linecap:square;"/>
        </g>
        <g transform="matrix(1.02886,0,0,1.02886,-72.1792,-12.5499)">
            <path d="M202.29,232.994c4.676,5.732 8.512,12.175 11.283,19.16" style="fill:none;stroke:white;stroke-width:0.61px;stroke-linecap:butt;"/>
        </g>
        <g transform="matrix(1.02886,0,0,1.02886,-72.1792,-12.5499)">
            <path d="M213.956,253.139c2.215,5.611 3.716,11.541 4.46,17.703" style="fill:none;stroke:white;stroke-width:0.61px;stroke-linecap:butt;"/>
        </g>
        <g transform="matrix(1.02886,0,0,1.02886,-72.1792,-12.5499)">
            <path d="M208.155,281.658c-0.145,5.062 -0.884,9.976 -2.157,14.642" style="fill:none;stroke:white;stroke-width:0.61px;stroke-linecap:butt;"/>
        </g>
        <g transform="matrix(1.02886,0,0,1.02886,-72.1792,-12.5499)">
            <path d="M205.041,299.528c-8.289,25.342 -32.13,43.648 -60.214,43.648c-34.977,0 -63.374,-28.397 -63.374,-63.375c0,-34.977 28.397,-63.374 63.374,-63.374c17.145,0 32.709,6.823 44.103,17.933" style="fill:none;stroke:white;stroke-width:0.61px;stroke-linecap:square;"/>
        </g>
        <g transform="matrix(1.02886,0,0,1.02886,-72.1792,-12.5499)">
            <path d="M205.09,282.158c-0.2,5.19 -1.056,10.211 -2.547,14.944" style="fill:none;stroke:white;stroke-width:0.61px;stroke-linecap:butt;"/>
        </g>
        <g transform="matrix(1.02886,0,0,1.02886,-72.1792,-12.5499)">
            <path d="M202.017,298.906c-7.975,23.953 -30.582,41.217 -57.19,41.217c-33.292,0 -60.322,-27.029 -60.322,-60.322c0,-33.292 27.03,-60.322 60.322,-60.322c16.155,0 30.835,6.364 41.609,16.733" style="fill:none;stroke:white;stroke-width:0.61px;stroke-linecap:square;"/>
        </g>
        <g transform="matrix(1.02886,0,0,1.02886,-72.1792,-12.5499)">
            <path d="M203.754,292.689l-43.784,-3.069" style="fill:none;stroke:white;stroke-width:0.61px;stroke-linecap:square;"/>
        </g>
        <g transform="matrix(1.02886,0,0,1.02886,-72.1792,-12.5499)">
            <path d="M185.963,295.503l-12.021,-8.008" style="fill:none;stroke:white;stroke-width:0.61px;stroke-linecap:square;"/>
        </g>
        <g transform="matrix(1.02886,0,0,1.02886,-72.1792,-12.5499)">
            <path d="M199.802,304.626l-10.097,-6.643" style="fill:none;stroke:white;stroke-width:0.61px;stroke-linecap:square;"/>
        </g>
        <g transform="matrix(1.02886,0,0,1.02886,-72.1792,-12.5499)">
            <path d="M152.879,274.083l12.432,7.162" style="fill:none;stroke:white;stroke-width:0.61px;stroke-linecap:square;"/>
        </g>
        <g transform="matrix(1.02886,0,0,1.02886,-72.1792,-12.5499)">
            <path d="M168.182,295.226l-6.55,-5.81" style="fill:none;stroke:white;stroke-width:0.61px;stroke-linecap:square;"/>
        </g>
        <g transform="matrix(1.02886,0,0,1.02886,-72.1792,-12.5499)">
            <path d="M193.005,316.078l-22.126,-18.47" style="fill:none;stroke:white;stroke-width:0.61px;stroke-linecap:square;"/>
        </g>
        <g transform="matrix(1.02886,0,0,1.02886,-72.1792,-12.5499)">
            <path d="M154.994,294.497l-3.58,-3.403" style="fill:none;stroke:white;stroke-width:0.61px;stroke-linecap:butt;"/>
        </g>
        <g transform="matrix(1.02886,0,0,1.02886,-72.1792,-12.5499)">
            <path d="M184.72,325.03l-27.597,-27.979" style="fill:none;stroke:white;stroke-width:0.61px;stroke-linecap:square;"/>
        </g>
        <g transform="matrix(1.02886,0,0,1.02886,-72.1792,-12.5499)">
            <path d="M173.933,332.639l-29.07,-36.358" style="fill:none;stroke:white;stroke-width:0.61px;stroke-linecap:square;"/>
        </g>
        <g transform="matrix(1.02886,0,0,1.02886,-72.1792,-12.5499)">
            <path d="M156.269,294.019l-0.561,-3.738" style="fill:none;stroke:white;stroke-width:0.4px;stroke-linecap:square;"/>
        </g>
        <g transform="matrix(1,0,0,1,-62.5036,-2.61547)">
            <path d="M126.722,286.561c0.136,-0.748 -0.035,-1.705 -0.795,-2.075c-0.453,-0.221 -0.592,-0.778 -0.435,-1.464c0.292,-0.756 0.539,-1.717 0,-2.313c-0.207,-0.293 -0.432,-0.968 0,-1.172c0.912,-0.657 0.985,-1.41 0.823,-2.25c0.055,-0.362 0.144,-0.934 0.748,-0.927c0.709,0.009 1.909,-1.094 1.832,-2.036c-0.023,-0.29 0.003,-0.631 0.556,-0.666c0.868,0.158 2.013,-0.571 2.184,-1.537c0.066,-0.312 0.325,-0.418 0.833,-0.259c0.945,0.396 1.769,0.191 2.461,-0.666c0.519,-0.563 1.113,-0.614 1.962,-0.407" style="fill:none;stroke:white;stroke-width:0.42px;"/>
        </g>
        <g transform="matrix(1.02886,0,0,1.02886,-72.1792,-12.5499)">
            <path d="M161.978,337.646l-5.401,-40.352" style="fill:none;stroke:white;stroke-width:0.61px;stroke-linecap:square;"/>
        </g>
        <g transform="matrix(1.02886,0,0,1.02886,-72.1792,-12.5499)">
            <path d="M148.916,339.987l0.302,-43.387" style="fill:none;stroke:white;stroke-width:0.61px;stroke-linecap:square;"/>
        </g>
        <g transform="matrix(1.02886,0,0,1.02886,-72.1792,-12.5499)">
            <path d="M135.29,339.372l3.801,-43.008" style="fill:none;stroke:white;stroke-width:0.61px;stroke-linecap:square;"/>
        </g>
        <g transform="matrix(1.02886,0,0,1.02886,-72.1792,-12.5499)">
            <path d="M122.237,335.744l11.021,-43.403" style="fill:none;stroke:white;stroke-width:0.61px;stroke-linecap:square;"/>
        </g>
        <g transform="matrix(1.02886,0,0,1.02886,-72.1792,-12.5499)">
            <path d="M109.221,328.485l29.997,-31.906" style="fill:none;stroke:white;stroke-width:0.61px;stroke-linecap:square;"/>
        </g>
        <g transform="matrix(1.02886,0,0,1.02886,-72.1792,-12.5499)">
            <path d="M99.22,319.266l37.569,-24.64" style="fill:none;stroke:white;stroke-width:0.61px;stroke-linecap:square;"/>
        </g>
        <g transform="matrix(1.02886,0,0,1.02886,-72.1792,-12.5499)">
            <path d="M91.111,307.257l37.874,-24.506" style="fill:none;stroke:white;stroke-width:0.61px;"/>
        </g>
        <g transform="matrix(1.02886,0,0,1.02886,-72.1792,-12.5499)">
            <path d="M86.336,294.595l43.272,-14.995" style="fill:none;stroke:white;stroke-width:0.61px;"/>
        </g>
        <g transform="matrix(1.02886,0,0,1.02886,-72.1792,-12.5499)">
            <path d="M84.505,281.054l44.226,2.249" style="fill:none;stroke:white;stroke-width:0.61px;stroke-linecap:square;"/>
        </g>
        <g transform="matrix(1.02886,0,0,1.02886,-72.1792,-12.5499)">
            <path d="M85.678,267.918l43.176,15.995" style="fill:none;stroke:white;stroke-width:0.61px;stroke-linecap:square;"/>
        </g>
        <g transform="matrix(1.02886,0,0,1.02886,-72.1792,-12.5499)">
            <path d="M89.643,255.42l55.184,15.043" style="fill:none;stroke:white;stroke-width:0.61px;stroke-linecap:square;"/>
        </g>
        <g transform="matrix(1.02886,0,0,1.02886,-72.1792,-12.5499)">
            <path d="M96.311,243.968l41.845,27.498" style="fill:none;stroke:white;stroke-width:0.61px;stroke-linecap:square;"/>
        </g>
        <g transform="matrix(1.02886,0,0,1.02886,-72.1792,-12.5499)">
            <path d="M105.242,234.299l29.765,38.675" style="fill:none;stroke:white;stroke-width:0.61px;stroke-linecap:square;"/>
        </g>
        <g transform="matrix(1.02886,0,0,1.02886,-72.1792,-12.5499)">
            <path d="M115.674,226.989l17.385,48.02" style="fill:none;stroke:white;stroke-width:0.61px;stroke-linecap:square;"/>
        </g>
        <g transform="matrix(1.02886,0,0,1.02886,-72.1792,-12.5499)">
            <path d="M203.875,256.912c2.022,5.084 3.36,10.471 3.956,16.067l-3,0.605c-0.599,-5.833 -2.029,-11.419 -4.199,-16.643" style="fill:none;stroke:white;stroke-width:0.61px;stroke-linecap:butt;"/>
        </g>
        <g transform="matrix(1.02886,0,0,1.02886,-72.1792,-12.5499)">
            <path d="M200.282,256.056c-2.308,-5.389 -5.388,-10.374 -9.095,-14.813c0.814,-0.618 1.583,-1.272 2.4,-1.883c3.686,4.446 6.786,9.409 9.137,14.75" style="fill:none;stroke:white;stroke-width:0.61px;stroke-linecap:butt;"/>
        </g>
        <g transform="matrix(1.02886,0,0,1.02886,-72.1792,-12.5499)">
            <path d="M207.831,272.979l-3,0.605" style="fill:none;stroke:white;stroke-width:0.61px;stroke-linecap:square;"/>
        </g>
        <g transform="matrix(1.47762,0,0,1.47762,-132.181,-142.953)">
            <circle cx="139.707" cy="285.841" r="2.94" style="fill:none;stroke:white;stroke-width:0.42px;stroke-linecap:square;"/>
        </g>
        <g transform="matrix(0.944433,0,0,0.944433,-57.6906,9.45388)">
            <circle cx="139.707" cy="285.841" r="2.94" style="fill:none;stroke:white;stroke-width:0.66px;stroke-linecap:square;"/>
        </g>
        <g transform="matrix(0.657601,0,0,0.657601,312.454,91.7196)">
            <circle cx="139.707" cy="285.841" r="2.94" style="fill:none;stroke:white;stroke-width:0.95px;stroke-linecap:square;"/>
        </g>
        <g transform="matrix(25.9173,0,0,25.9173,-3219.91,-7133.22)">
            <path d="M138.562,283.132c0.352,-0.149 0.739,-0.231 1.145,-0.231c1.622,0 2.94,1.317 2.94,2.94c0,1.623 -1.318,2.94 -2.94,2.94c-1.623,0 -2.941,-1.317 -2.941,-2.94c0,-1.039 0.541,-1.954 1.357,-2.476c0.307,0.637 0.812,1.474 1.397,2.441l0.181,0.286c0.09,0.159 0.366,0.025 0.254,-0.178l-0.127,-0.163c-0.245,-0.509 -0.866,-1.797 -1.266,-2.619Z" style="fill:none;stroke:white;stroke-width:0.02px;stroke-linecap:square;"/>
        </g>
        <g transform="matrix(20.7777,0,0,20.7777,-2501.88,-5664.13)">
            <path d="M138.603,283.115c0.342,-0.138 0.714,-0.214 1.104,-0.214c1.622,0 2.94,1.317 2.94,2.94c0,1.623 -1.318,2.94 -2.94,2.94c-1.623,0 -2.941,-1.317 -2.941,-2.94c0,-1.013 0.513,-1.907 1.294,-2.435" style="fill:none;stroke:white;stroke-width:0.03px;stroke-linecap:square;"/>
        </g>
        <g transform="matrix(21.8231,0,0,21.8231,-2647.93,-5962.96)">
            <path d="M138.589,283.122c0.344,-0.143 0.722,-0.221 1.118,-0.221c1.622,0 2.94,1.317 2.94,2.94c0,1.623 -1.318,2.94 -2.94,2.94c-1.623,0 -2.941,-1.317 -2.941,-2.94c0,-1.021 0.522,-1.921 1.312,-2.447" style="fill:none;stroke:white;stroke-width:0.03px;stroke-linecap:square;"/>
        </g>
        <g transform="matrix(2.60396,0,0,2.60396,40.356,-464.888)">
            <path d="M139.707,282.901c1.622,0 2.94,1.317 2.94,2.94c0,1.623 -1.318,2.94 -2.94,2.94c-1.623,0 -2.941,-1.317 -2.941,-2.94c0,-0.439 0.097,-0.856 0.27,-1.231" style="fill:none;stroke:white;stroke-width:0.24px;stroke-linecap:square;"/>
        </g>
        <g transform="matrix(1.02886,0,0,1.02886,-68.0806,-14.8004)">
            <path d="M142.569,283.903c0,0 2.318,-0.425 2.496,1.166c0.197,1.758 -2.496,2.091 -2.496,2.091" style="fill:none;stroke:white;stroke-width:0.61px;stroke-linecap:square;"/>
        </g>
        <g transform="matrix(1.02886,0,0,1.02886,-72.1792,-12.5499)">
            <path d="M199.184,253.605l-37.428,12.009" style="fill:none;stroke:white;stroke-width:0.61px;stroke-linecap:square;"/>
        </g>
        <g transform="matrix(1.02886,0,0,1.02886,-72.1792,-12.5499)">
            <path d="M203.804,266.79l-51.084,7.526" style="fill:none;stroke:white;stroke-width:0.61px;stroke-linecap:square;"/>
        </g>
        <g transform="matrix(1.02886,0,0,1.02886,-72.1792,-12.5499)">
            <path d="M160.184,269.074l-6.764,11.901" style="fill:none;stroke:white;stroke-width:0.61px;stroke-linecap:square;"/>
        </g>
        <g transform="matrix(1,0,0,1,-62.5036,-2.61547)">
            <path d="M223.012,295.858c1.183,-1.247 2.286,-1.209 3.316,0c0.438,0.386 0.832,0.254 1.216,0c1.053,-1.181 2.256,-1.226 3.354,0c0.432,0.347 0.886,0.446 1.386,0" style="fill:none;stroke:white;stroke-width:0.42px;"/>
        </g>
        <g transform="matrix(1,0,0,1,-44.1073,-2.52328)">
            <path d="M223.012,295.858c1.183,-1.247 2.286,-1.209 3.316,0c0.438,0.386 0.832,0.254 1.216,0c1.053,-1.181 2.256,-1.226 3.354,0c0.432,0.347 0.886,0.446 1.386,0" style="fill:none;stroke:white;stroke-width:0.42px;"/>
        </g>
        <g transform="matrix(1,0,0,1,-62.5036,-2.61547)">
            <path d="M223.012,297.551c0.891,0.922 1.85,1.11 3.175,0c0.458,-0.258 0.987,-0.306 1.385,0c0.976,1.055 1.974,1.136 3.263,0c0.466,-0.247 0.983,-0.317 1.314,0" style="fill:none;stroke:white;stroke-width:0.42px;"/>
        </g>
        <g transform="matrix(1,0,0,1,-44.1073,-2.52328)">
            <path d="M223.012,297.551c0.891,0.922 1.85,1.11 3.175,0c0.458,-0.258 0.987,-0.306 1.385,0c0.976,1.055 1.974,1.136 3.263,0c0.466,-0.247 0.983,-0.317 1.314,0" style="fill:none;stroke:white;stroke-width:0.42px;"/>
        </g>
        <g transform="matrix(2.71497,0,0,3.00668,-447.088,-597.364)">
            <ellipse cx="224.399" cy="296.504" rx="0.247" ry="0.182" style="fill:none;stroke:white;stroke-width:0.15px;"/>
        </g>
        <g transform="matrix(2.71497,0,0,3.00668,-428.691,-597.272)">
            <ellipse cx="224.399" cy="296.504" rx="0.247" ry="0.182" style="fill:none;stroke:white;stroke-width:0.15px;"/>
        </g>
        <g transform="matrix(2.71497,0,0,3.00668,-442.51,-597.327)">
            <ellipse cx="224.399" cy="296.504" rx="0.247" ry="0.182" style="fill:none;stroke:white;stroke-width:0.15px;"/>
        </g>
        <g transform="matrix(2.71497,0,0,3.00668,-424.113,-597.235)">
            <ellipse cx="224.399" cy="296.504" rx="0.247" ry="0.182" style="fill:none;stroke:white;stroke-width:0.15px;"/>
        </g>
        <g transform="matrix(2.71497,0,0,3.00668,-437.895,-597.327)">
            <ellipse cx="224.399" cy="296.504" rx="0.247" ry="0.182" style="fill:none;stroke:white;stroke-width:0.15px;"/>
        </g>
        <g transform="matrix(2.71497,0,0,3.00668,-433.243,-597.327)">
            <ellipse cx="224.399" cy="296.504" rx="0.247" ry="0.182" style="fill:none;stroke:white;stroke-width:0.15px;"/>
        </g>
        <g transform="matrix(1,0,0,1,-53.2899,-2.55529)">
            <path d="M222.991,295.858c1.183,-1.247 2.307,-1.209 3.337,0c0.438,0.386 0.832,0.254 1.216,0c1.053,-1.181 2.256,-1.226 3.354,0c0.432,0.347 0.886,0.446 1.386,0" style="fill:none;stroke:white;stroke-width:0.42px;"/>
        </g>
        <g transform="matrix(1,0,0,1,-53.2899,-2.55529)">
            <path d="M226.328,295.858c0.438,0.386 0.832,0.254 1.216,0c1.053,-1.181 2.256,-1.226 3.354,0c0.432,0.347 0.886,0.446 1.386,0" style="fill:none;stroke:white;stroke-width:0.42px;"/>
        </g>
        <g transform="matrix(1,0,0,1,-53.2899,-2.55529)">
            <path d="M223.012,297.551c0.891,0.922 1.85,1.11 3.175,0c0.458,-0.258 0.987,-0.306 1.385,0c0.976,1.055 1.974,1.136 3.263,0c0.466,-0.247 0.983,-0.317 1.314,0" style="fill:none;stroke:white;stroke-width:0.42px;"/>
        </g>
        <g transform="matrix(1,0,0,1,-80.9632,-2.72369)">
            <path d="M223.012,295.858c1.183,-1.247 2.286,-1.209 3.316,0c0.438,0.386 0.832,0.254 1.216,0c1.053,-1.181 2.256,-1.226 3.354,0c0.432,0.347 0.886,0.446 1.386,0" style="fill:none;stroke:white;stroke-width:0.42px;"/>
        </g>
        <g transform="matrix(0.957752,-0.287596,0.287596,0.957752,-194.293,39.6779)">
            <path d="M222.854,295.922c1.183,-1.248 2.444,-1.273 3.474,-0.064c0.438,0.386 0.832,0.254 1.216,0c1.053,-1.181 2.256,-1.226 3.354,0c0.432,0.347 0.747,0.543 1.247,0.097" style="fill:none;stroke:white;stroke-width:0.42px;"/>
        </g>
        <g transform="matrix(0.957752,-0.287596,0.287596,0.957752,-185.56,37.2521)">
            <path d="M222.985,295.851c1.183,-1.247 2.313,-1.202 3.343,0.007c0.438,0.386 0.832,0.254 1.216,0c1.053,-1.181 2.256,-1.226 3.354,0c0.432,0.347 0.747,0.543 1.247,0.097" style="fill:none;stroke:white;stroke-width:0.42px;"/>
        </g>
        <g transform="matrix(0.957752,-0.287596,0.287596,0.957752,-168.159,32.3259)">
            <path d="M223.07,295.859c1.004,-0.876 1.94,-0.784 2.991,0.143c0.438,0.386 1.099,0.11 1.483,-0.144c1.053,-1.181 2.256,-1.226 3.354,0c0.432,0.347 0.747,0.543 1.247,0.097" style="fill:none;stroke:white;stroke-width:0.42px;"/>
        </g>
        <g transform="matrix(0.954001,-0.299804,0.299804,0.954001,-153.601,31.2112)">
            <path d="M223.152,295.804c1.183,-1.247 2.146,-1.155 3.176,0.054c0.438,0.386 0.832,0.254 1.216,0c1.053,-1.181 2.256,-1.226 3.354,0c0.432,0.347 0.747,0.543 1.247,0.097" style="fill:none;stroke:white;stroke-width:0.42px;"/>
        </g>
        <g transform="matrix(0.957752,-0.287596,0.287596,0.957752,-176.87,34.7847)">
            <path d="M223.02,295.893c1.257,-1.159 2.278,-1.244 3.308,-0.035c0.438,0.386 0.832,0.254 1.216,0c1.053,-1.181 2.256,-1.226 3.354,0c0.432,0.347 0.747,0.543 1.247,0.097" style="fill:none;stroke:white;stroke-width:0.42px;"/>
        </g>
        <g transform="matrix(0.957752,-0.287596,0.287596,0.957752,-159.469,29.8584)">
            <path d="M223.02,295.893c1.257,-1.159 2.278,-1.244 3.308,-0.035c0.438,0.386 0.832,0.254 1.216,0c1.053,-1.181 2.256,-1.226 3.354,0c0.432,0.347 0.779,0.488 1.279,0.043" style="fill:none;stroke:white;stroke-width:0.42px;"/>
        </g>
        <g transform="matrix(0.954001,-0.299804,0.299804,0.954001,-144.943,28.633)">
            <path d="M223.02,295.893c1.257,-1.159 2.278,-1.244 3.308,-0.035c0.438,0.386 0.832,0.254 1.216,0c1.053,-1.181 2.256,-1.226 3.354,0c0.432,0.347 0.728,0.427 1.228,-0.018" style="fill:none;stroke:white;stroke-width:0.42px;"/>
        </g>
        <g transform="matrix(0.954001,-0.299804,0.299804,0.954001,-136.324,25.9536)">
            <path d="M223.02,295.893c1.257,-1.159 2.559,-1.289 3.308,-0.035c0.438,0.386 0.832,0.254 1.216,0c1.053,-1.181 2.399,-0.765 3.354,0c0.432,0.347 0.643,0.426 1.143,-0.02" style="fill:none;stroke:white;stroke-width:0.42px;"/>
        </g>
        <g transform="matrix(0.954001,-0.299804,0.299804,0.954001,-127.797,23.2637)">
            <path d="M223.02,295.893c0.948,-0.759 2.216,-0.998 3.308,-0.035c0.438,0.386 1.166,0.172 1.55,-0.082" style="fill:none;stroke:white;stroke-width:0.42px;"/>
        </g>
        <g transform="matrix(0.999098,0.0424727,-0.0424727,0.999098,-86.5825,-12.8454)">
            <path d="M222.831,296.007c1.183,-1.248 2.467,-1.358 3.497,-0.149c0.438,0.386 0.832,0.254 1.216,0c1.053,-1.181 2.256,-1.226 3.354,0c0.432,0.347 0.886,0.446 1.386,0" style="fill:none;stroke:white;stroke-width:0.42px;"/>
        </g>
        <g transform="matrix(0.999733,0.0230986,-0.0230986,0.999733,-111.22,-9.01502)">
            <path d="M223.012,295.858c1.183,-1.247 2.286,-1.209 3.316,0c0.438,0.386 0.832,0.254 1.216,0c1.053,-1.181 2.256,-1.226 3.354,0c0.432,0.347 0.886,0.446 1.386,0" style="fill:none;stroke:white;stroke-width:0.42px;"/>
        </g>
        <g transform="matrix(0.998494,0.054862,-0.054862,0.998494,-119.975,-16.7944)">
            <path d="M223.012,295.858c1.183,-1.247 2.286,-1.209 3.316,0c0.438,0.386 0.832,0.254 1.216,0c1.053,-1.181 2.256,-1.226 3.354,0c0.432,0.347 0.886,0.446 1.386,0" style="fill:none;stroke:white;stroke-width:0.42px;"/>
        </g>
        <g transform="matrix(1,0,0,1,-80.9632,-2.72369)">
            <path d="M223.012,297.551c0.891,0.922 1.85,1.11 3.175,0c0.458,-0.258 0.987,-0.306 1.385,0c0.976,1.055 1.974,1.136 3.263,0c0.466,-0.247 0.983,-0.317 1.314,0" style="fill:none;stroke:white;stroke-width:0.42px;"/>
        </g>
        <g transform="matrix(0.957752,-0.287596,0.287596,0.957752,-194.293,39.6779)">
            <path d="M223.012,297.551c0.891,0.922 1.85,1.11 3.175,0c0.458,-0.258 0.987,-0.306 1.385,0c0.976,1.055 1.974,1.136 3.263,0c0.466,-0.247 0.855,-0.252 1.186,0.065" style="fill:none;stroke:white;stroke-width:0.42px;"/>
        </g>
        <g transform="matrix(0.957752,-0.287596,0.287596,0.957752,-185.56,37.2521)">
            <path d="M223.016,297.464c0.891,0.922 1.846,1.197 3.171,0.087c0.458,-0.258 0.987,-0.306 1.385,0c0.976,1.055 1.974,1.136 3.263,0c0.466,-0.247 0.855,-0.252 1.186,0.065" style="fill:none;stroke:white;stroke-width:0.42px;"/>
        </g>
        <g transform="matrix(0.957752,-0.287596,0.287596,0.957752,-168.159,32.3259)">
            <path d="M223.016,297.464c0.891,0.922 2.119,1.033 3.118,-0.108c0.458,-0.258 1.04,-0.111 1.438,0.195c0.976,1.055 1.974,1.136 3.263,0c0.466,-0.247 0.855,-0.252 1.186,0.065" style="fill:none;stroke:white;stroke-width:0.42px;"/>
        </g>
        <g transform="matrix(0.954001,-0.299804,0.299804,0.954001,-153.601,31.2112)">
            <path d="M223.008,297.284c0.891,0.922 1.854,1.377 3.179,0.267c0.458,-0.258 0.987,-0.306 1.385,0c0.976,1.055 1.974,1.136 3.263,0c0.466,-0.247 0.855,-0.252 1.186,0.065" style="fill:none;stroke:white;stroke-width:0.42px;"/>
        </g>
        <g transform="matrix(0.957752,-0.287596,0.287596,0.957752,-176.87,34.7847)">
            <path d="M222.908,297.432c0.892,0.922 1.954,1.229 3.279,0.119c0.458,-0.258 0.987,-0.306 1.385,0c0.976,1.055 1.974,1.136 3.263,0c0.466,-0.247 0.855,-0.252 1.186,0.065" style="fill:none;stroke:white;stroke-width:0.42px;"/>
        </g>
        <g transform="matrix(0.957752,-0.287596,0.287596,0.957752,-159.469,29.8584)">
            <path d="M222.908,297.432c0.892,0.922 1.954,1.229 3.279,0.119c0.458,-0.258 0.987,-0.306 1.385,0c0.976,1.055 1.974,1.136 3.263,0c0.466,-0.247 0.799,-0.494 1.13,-0.177" style="fill:none;stroke:white;stroke-width:0.42px;"/>
        </g>
        <g transform="matrix(0.954001,-0.299804,0.299804,0.954001,-144.943,28.633)">
            <path d="M222.908,297.432c0.892,0.922 1.954,1.229 3.279,0.119c0.458,-0.258 0.987,-0.306 1.385,0c0.976,1.055 1.974,1.136 3.263,0c0.466,-0.247 0.804,-0.35 1.135,-0.033" style="fill:none;stroke:white;stroke-width:0.42px;"/>
        </g>
        <g transform="matrix(0.954001,-0.299804,0.299804,0.954001,-136.324,25.9536)">
            <path d="M222.908,297.432c0.892,0.922 1.954,1.229 3.279,0.119c0.458,-0.258 0.987,-0.306 1.385,0c0.976,1.055 1.974,1.136 3.263,0c0.466,-0.247 0.751,-0.369 1.082,-0.052" style="fill:none;stroke:white;stroke-width:0.42px;"/>
        </g>
        <g transform="matrix(0.954001,-0.299804,0.299804,0.954001,-127.797,23.2637)">
            <path d="M222.908,297.432c0.892,0.922 1.954,1.229 3.279,0.119c0.458,-0.258 0.934,-0.143 1.331,0.163c0.799,1.127 2.662,0.402 2.662,0.402" style="fill:none;stroke:white;stroke-width:0.42px;"/>
        </g>
        <g transform="matrix(0.999098,0.0424727,-0.0424727,0.999098,-86.5825,-12.8454)">
            <path d="M223.048,297.684c1.163,0.724 1.814,0.977 3.139,-0.133c0.458,-0.258 0.987,-0.306 1.385,0c0.976,1.055 1.974,1.136 3.263,0c0.466,-0.247 0.983,-0.317 1.314,0" style="fill:none;stroke:white;stroke-width:0.42px;"/>
        </g>
        <g transform="matrix(0.999733,0.0230986,-0.0230986,0.999733,-111.22,-9.01502)">
            <path d="M223.012,297.551c0.891,0.922 1.85,1.11 3.175,0c0.458,-0.258 0.987,-0.306 1.385,0c0.976,1.055 1.974,1.136 3.263,0c0.466,-0.247 0.983,-0.317 1.314,0" style="fill:none;stroke:white;stroke-width:0.42px;"/>
        </g>
        <g transform="matrix(0.998494,0.054862,-0.054862,0.998494,-119.975,-16.7944)">
            <path d="M223.012,297.551c0.891,0.922 1.85,1.11 3.175,0c0.458,-0.258 0.987,-0.306 1.385,0c0.976,1.055 1.974,1.136 3.263,0c0.466,-0.247 0.983,-0.317 1.314,0" style="fill:none;stroke:white;stroke-width:0.42px;"/>
        </g>
        <g transform="matrix(2.71497,0,0,3.00668,-465.547,-597.472)">
            <ellipse cx="224.399" cy="296.504" rx="0.247" ry="0.182" style="fill:none;stroke:white;stroke-width:0.15px;"/>
        </g>
        <g transform="matrix(2.60027,-0.780814,0.864708,2.87965,-733.676,-419.339)">
            <ellipse cx="224.399" cy="296.504" rx="0.247" ry="0.182" style="fill:none;stroke:white;stroke-width:0.15px;"/>
        </g>
        <g transform="matrix(2.60027,-0.780814,0.864708,2.87965,-724.943,-421.765)">
            <ellipse cx="224.399" cy="296.504" rx="0.247" ry="0.182" style="fill:none;stroke:white;stroke-width:0.15px;"/>
        </g>
        <g transform="matrix(2.60027,-0.780814,0.864708,2.87965,-707.521,-426.584)">
            <ellipse cx="224.399" cy="296.504" rx="0.247" ry="0.182" style="fill:none;stroke:white;stroke-width:0.15px;"/>
        </g>
        <g transform="matrix(2.59008,-0.813958,0.901413,2.86837,-698.802,-420.88)">
            <ellipse cx="224.399" cy="296.504" rx="0.247" ry="0.182" style="fill:none;stroke:white;stroke-width:0.15px;"/>
        </g>
        <g transform="matrix(2.60027,-0.780814,0.864708,2.87965,-716.253,-424.232)">
            <ellipse cx="224.399" cy="296.504" rx="0.247" ry="0.182" style="fill:none;stroke:white;stroke-width:0.15px;"/>
        </g>
        <g transform="matrix(2.60027,-0.780814,0.864708,2.87965,-698.852,-429.158)">
            <ellipse cx="224.399" cy="296.504" rx="0.247" ry="0.182" style="fill:none;stroke:white;stroke-width:0.15px;"/>
        </g>
        <g transform="matrix(2.59008,-0.813958,0.901413,2.86837,-690.144,-423.458)">
            <ellipse cx="224.399" cy="296.504" rx="0.247" ry="0.182" style="fill:none;stroke:white;stroke-width:0.15px;"/>
        </g>
        <g transform="matrix(2.59008,-0.813958,0.901413,2.86837,-681.525,-426.137)">
            <ellipse cx="224.399" cy="296.504" rx="0.247" ry="0.182" style="fill:none;stroke:white;stroke-width:0.15px;"/>
        </g>
        <g transform="matrix(2.59008,-0.813958,0.901413,2.86837,-672.998,-428.827)">
            <ellipse cx="224.399" cy="296.504" rx="0.247" ry="0.182" style="fill:none;stroke:white;stroke-width:0.15px;"/>
        </g>
        <g transform="matrix(2.59008,-0.813958,0.901413,2.86837,-668.644,-430.05)">
            <ellipse cx="224.399" cy="296.504" rx="0.247" ry="0.182" style="fill:none;stroke:white;stroke-width:0.15px;"/>
        </g>
        <g transform="matrix(2.71252,0.115312,-0.127702,3.00396,-445.559,-623.392)">
            <ellipse cx="224.399" cy="296.504" rx="0.247" ry="0.182" style="fill:none;stroke:white;stroke-width:0.15px;"/>
        </g>
        <g transform="matrix(2.71424,0.0627119,-0.0694499,3.00588,-481.964,-612.488)">
            <ellipse cx="224.399" cy="296.504" rx="0.247" ry="0.182" style="fill:none;stroke:white;stroke-width:0.15px;"/>
        </g>
        <g transform="matrix(2.71088,0.148949,-0.164952,3.00215,-471.351,-631.746)">
            <ellipse cx="224.399" cy="296.504" rx="0.247" ry="0.182" style="fill:none;stroke:white;stroke-width:0.15px;"/>
        </g>
        <g transform="matrix(2.71088,0.148949,-0.164952,3.00215,-475.92,-632.082)">
            <ellipse cx="224.399" cy="296.504" rx="0.247" ry="0.182" style="fill:none;stroke:white;stroke-width:0.15px;"/>
        </g>
        <g transform="matrix(2.71088,0.148949,-0.164952,3.00215,-480.427,-632.145)">
            <ellipse cx="224.399" cy="296.504" rx="0.247" ry="0.182" style="fill:none;stroke:white;stroke-width:0.15px;"/>
        </g>
        <g transform="matrix(2.33925,0.12853,-0.142339,2.59059,-407.922,-505.716)">
            <ellipse cx="224.399" cy="296.504" rx="0.247" ry="0.182" style="fill:none;stroke:white;stroke-width:0.17px;"/>
        </g>
        <g transform="matrix(2.40793,1.25417,-1.38893,2.66664,-57.6217,-781.516)">
            <ellipse cx="224.399" cy="296.504" rx="0.247" ry="0.182" style="fill:none;stroke:white;stroke-width:0.15px;"/>
        </g>
        <g transform="matrix(2.06021,1.07306,-1.26064,2.42034,-20.9929,-669.565)">
            <ellipse cx="224.399" cy="296.504" rx="0.247" ry="0.182" style="fill:none;stroke:white;stroke-width:0.16px;"/>
        </g>
        <g transform="matrix(1.08799,2.05237,-2.41112,1.27817,535.599,-553.005)">
            <ellipse cx="224.399" cy="296.504" rx="0.247" ry="0.182" style="fill:none;stroke:white;stroke-width:0.16px;"/>
        </g>
        <g transform="matrix(0.943391,1.77961,-2.08586,1.10574,469.612,-443.861)">
            <ellipse cx="224.399" cy="296.504" rx="0.247" ry="0.182" style="fill:none;stroke:white;stroke-width:0.19px;"/>
        </g>
        <g transform="matrix(-0.160969,2.00775,-2.35327,-0.188671,795.772,-115.539)">
            <ellipse cx="224.399" cy="296.504" rx="0.247" ry="0.182" style="fill:none;stroke:white;stroke-width:0.19px;"/>
        </g>
        <g transform="matrix(-0.578936,1.9292,-2.2612,-0.678567,862.987,43.601)">
            <ellipse cx="224.399" cy="296.504" rx="0.247" ry="0.182" style="fill:none;stroke:white;stroke-width:0.19px;"/>
        </g>
        <g transform="matrix(-1.08967,1.69399,-1.98552,-1.27719,898.058,270.632)">
            <ellipse cx="224.399" cy="296.504" rx="0.247" ry="0.182" style="fill:none;stroke:white;stroke-width:0.19px;"/>
        </g>
        <g transform="matrix(-1.3681,1.13318,-1.3282,-1.60354,768.395,490.923)">
            <ellipse cx="224.399" cy="296.504" rx="0.247" ry="0.182" style="fill:none;stroke:white;stroke-width:0.22px;"/>
        </g>
        <g transform="matrix(-1.66966,0.606649,-0.711049,-1.957,656.433,712.323)">
            <ellipse cx="224.399" cy="296.504" rx="0.247" ry="0.182" style="fill:none;stroke:white;stroke-width:0.22px;"/>
        </g>
        <g transform="matrix(-1.74548,0.330285,-0.387125,-2.04587,581.109,799.576)">
            <ellipse cx="224.399" cy="296.504" rx="0.247" ry="0.182" style="fill:none;stroke:white;stroke-width:0.22px;"/>
        </g>
        <g transform="matrix(2.71497,0,0,3.00668,-460.969,-597.435)">
            <ellipse cx="224.399" cy="296.504" rx="0.247" ry="0.182" style="fill:none;stroke:white;stroke-width:0.15px;"/>
        </g>
        <g transform="matrix(2.60027,-0.780814,0.864708,2.87965,-729.281,-420.62)">
            <ellipse cx="224.399" cy="296.504" rx="0.247" ry="0.182" style="fill:none;stroke:white;stroke-width:0.15px;"/>
        </g>
        <g transform="matrix(2.60027,-0.780814,0.864708,2.87965,-720.548,-423.046)">
            <ellipse cx="224.399" cy="296.504" rx="0.247" ry="0.182" style="fill:none;stroke:white;stroke-width:0.15px;"/>
        </g>
        <g transform="matrix(2.60027,-0.780814,0.864708,2.87965,-703.147,-427.972)">
            <ellipse cx="224.399" cy="296.504" rx="0.247" ry="0.182" style="fill:none;stroke:white;stroke-width:0.15px;"/>
        </g>
        <g transform="matrix(2.59008,-0.813958,0.901413,2.86837,-694.423,-422.217)">
            <ellipse cx="224.399" cy="296.504" rx="0.247" ry="0.182" style="fill:none;stroke:white;stroke-width:0.15px;"/>
        </g>
        <g transform="matrix(2.60027,-0.780814,0.864708,2.87965,-711.858,-425.513)">
            <ellipse cx="224.399" cy="296.504" rx="0.247" ry="0.182" style="fill:none;stroke:white;stroke-width:0.15px;"/>
        </g>
        <g transform="matrix(2.60027,-0.780814,0.864708,2.87965,-694.457,-430.44)">
            <ellipse cx="224.399" cy="296.504" rx="0.247" ry="0.182" style="fill:none;stroke:white;stroke-width:0.15px;"/>
        </g>
        <g transform="matrix(2.59008,-0.813958,0.901413,2.86837,-685.766,-424.795)">
            <ellipse cx="224.399" cy="296.504" rx="0.247" ry="0.182" style="fill:none;stroke:white;stroke-width:0.15px;"/>
        </g>
        <g transform="matrix(2.59008,-0.813958,0.901413,2.86837,-677.147,-427.475)">
            <ellipse cx="224.399" cy="296.504" rx="0.247" ry="0.182" style="fill:none;stroke:white;stroke-width:0.15px;"/>
        </g>
        <g transform="matrix(2.71252,0.115312,-0.127702,3.00396,-440.987,-623.16)">
            <ellipse cx="224.399" cy="296.504" rx="0.247" ry="0.182" style="fill:none;stroke:white;stroke-width:0.15px;"/>
        </g>
        <g transform="matrix(2.71424,0.0627119,-0.0694499,3.00588,-477.388,-612.346)">
            <ellipse cx="224.399" cy="296.504" rx="0.247" ry="0.182" style="fill:none;stroke:white;stroke-width:0.15px;"/>
        </g>
        <g transform="matrix(2.71088,0.148949,-0.164952,3.00215,-466.782,-631.458)">
            <ellipse cx="224.399" cy="296.504" rx="0.247" ry="0.182" style="fill:none;stroke:white;stroke-width:0.15px;"/>
        </g>
        <g transform="matrix(2.71497,0,0,3.00668,-456.354,-597.435)">
            <ellipse cx="224.399" cy="296.504" rx="0.247" ry="0.182" style="fill:none;stroke:white;stroke-width:0.15px;"/>
        </g>
        <g transform="matrix(2.71252,0.115312,-0.127702,3.00396,-436.376,-622.964)">
            <ellipse cx="224.399" cy="296.504" rx="0.247" ry="0.182" style="fill:none;stroke:white;stroke-width:0.15px;"/>
        </g>
        <g transform="matrix(2.6135,-0.735312,0.814317,2.8943,-730.492,-431.453)">
            <ellipse cx="224.399" cy="296.504" rx="0.247" ry="0.182" style="fill:none;stroke:white;stroke-width:0.15px;"/>
        </g>
        <g transform="matrix(2.57589,-0.347385,0.38471,2.85265,-599.074,-505.36)">
            <ellipse cx="224.399" cy="296.504" rx="0.247" ry="0.182" style="fill:none;stroke:white;stroke-width:0.15px;"/>
        </g>
        <g transform="matrix(2.71424,0.0627119,-0.0694499,3.00588,-472.774,-612.239)">
            <ellipse cx="224.399" cy="296.504" rx="0.247" ry="0.182" style="fill:none;stroke:white;stroke-width:0.15px;"/>
        </g>
        <g transform="matrix(2.71088,0.148949,-0.164952,3.00215,-462.174,-631.205)">
            <ellipse cx="224.399" cy="296.504" rx="0.247" ry="0.182" style="fill:none;stroke:white;stroke-width:0.15px;"/>
        </g>
        <g transform="matrix(2.71497,0,0,3.00668,-451.702,-597.435)">
            <ellipse cx="224.399" cy="296.504" rx="0.247" ry="0.182" style="fill:none;stroke:white;stroke-width:0.15px;"/>
        </g>
        <g transform="matrix(2.71252,0.115312,-0.127702,3.00396,-431.728,-622.767)">
            <ellipse cx="224.399" cy="296.504" rx="0.247" ry="0.182" style="fill:none;stroke:white;stroke-width:0.15px;"/>
        </g>
        <g transform="matrix(2.6135,-0.735312,0.814317,2.8943,-726.014,-432.713)">
            <ellipse cx="224.399" cy="296.504" rx="0.247" ry="0.182" style="fill:none;stroke:white;stroke-width:0.15px;"/>
        </g>
        <g transform="matrix(2.71424,0.0627119,-0.0694499,3.00588,-468.124,-612.132)">
            <ellipse cx="224.399" cy="296.504" rx="0.247" ry="0.182" style="fill:none;stroke:white;stroke-width:0.15px;"/>
        </g>
        <g transform="matrix(2.71088,0.148949,-0.164952,3.00215,-457.529,-630.95)">
            <ellipse cx="224.399" cy="296.504" rx="0.247" ry="0.182" style="fill:none;stroke:white;stroke-width:0.15px;"/>
        </g>
        <g transform="matrix(1,0,0,1,-71.7494,-2.6635)">
            <path d="M222.991,295.858c1.183,-1.247 2.307,-1.209 3.337,0c0.438,0.386 0.832,0.254 1.216,0c1.053,-1.181 2.256,-1.226 3.354,0c0.432,0.347 0.886,0.446 1.386,0" style="fill:none;stroke:white;stroke-width:0.42px;"/>
        </g>
        <g transform="matrix(0.999098,0.0424727,-0.0424727,0.999098,-77.3796,-12.394)">
            <path d="M222.991,295.858c1.183,-1.247 2.307,-1.209 3.337,0c0.438,0.386 0.832,0.254 1.216,0c1.053,-1.181 2.256,-1.226 3.354,0c0.432,0.347 0.886,0.446 1.386,0" style="fill:none;stroke:white;stroke-width:0.42px;"/>
        </g>
        <g transform="matrix(0.962625,-0.270836,0.270836,0.962625,-199.176,36.9245)">
            <path d="M221.351,295.17c0.523,0.629 1.071,0.798 1.646,0.463c1.308,-0.986 2.301,-0.984 3.331,0.225c0.438,0.386 0.832,0.254 1.216,0c1.053,-1.181 2.256,-1.226 3.354,0c0.432,0.347 0.78,0.333 1.279,-0.113" style="fill:none;stroke:white;stroke-width:0.42px;"/>
        </g>
        <g transform="matrix(0.999733,0.0230986,-0.0230986,0.999733,-102.01,-8.74203)">
            <path d="M222.991,295.858c1.183,-1.247 2.307,-1.209 3.337,0c0.438,0.386 0.832,0.254 1.216,0c1.053,-1.181 2.256,-1.226 3.354,0c0.432,0.347 0.886,0.446 1.386,0" style="fill:none;stroke:white;stroke-width:0.42px;"/>
        </g>
        <g transform="matrix(0.998494,0.054862,-0.054862,0.998494,-110.779,-16.2288)">
            <path d="M222.991,295.858c1.183,-1.247 2.307,-1.209 3.337,0c0.438,0.386 0.832,0.254 1.216,0c1.053,-1.181 2.256,-1.226 3.354,0c0.432,0.347 0.886,0.446 1.386,0" style="fill:none;stroke:white;stroke-width:0.42px;"/>
        </g>
        <g transform="matrix(1,0,0,1,-71.7494,-2.6635)">
            <path d="M226.328,295.858c0.438,0.386 0.832,0.254 1.216,0c1.053,-1.181 2.256,-1.226 3.354,0c0.432,0.347 0.886,0.446 1.386,0" style="fill:none;stroke:white;stroke-width:0.42px;"/>
        </g>
        <g transform="matrix(1,0,0,1,-71.7494,-2.6635)">
            <path d="M223.012,297.551c0.891,0.922 1.85,1.11 3.175,0c0.458,-0.258 0.987,-0.306 1.385,0c0.976,1.055 1.974,1.136 3.263,0c0.466,-0.247 0.983,-0.317 1.314,0" style="fill:none;stroke:white;stroke-width:0.42px;"/>
        </g>
        <g transform="matrix(0.999098,0.0424727,-0.0424727,0.999098,-77.3796,-12.394)">
            <path d="M223.012,297.551c0.891,0.922 1.85,1.11 3.175,0c0.458,-0.258 0.987,-0.306 1.385,0c0.976,1.055 1.974,1.136 3.263,0c0.466,-0.247 0.983,-0.317 1.314,0" style="fill:none;stroke:white;stroke-width:0.42px;"/>
        </g>
        <g transform="matrix(0.962625,-0.270836,0.270836,0.962625,-199.176,36.9245)">
            <path d="M218.365,297.02c1.148,0.948 2.062,0.978 3.279,0.43c0.322,-0.268 0.785,-0.218 1.368,0.101c0.891,0.922 1.85,1.11 3.175,0c0.458,-0.258 0.987,-0.306 1.385,0c0.976,1.055 1.974,1.136 3.263,0c0.466,-0.247 0.983,-0.317 1.314,0" style="fill:none;stroke:white;stroke-width:0.42px;"/>
        </g>
        <g transform="matrix(0.999733,0.0230986,-0.0230986,0.999733,-102.01,-8.74203)">
            <path d="M223.012,297.551c0.891,0.922 1.85,1.11 3.175,0c0.458,-0.258 0.987,-0.306 1.385,0c0.976,1.055 1.974,1.136 3.263,0c0.466,-0.247 1.231,-0.353 1.562,-0.036" style="fill:none;stroke:white;stroke-width:0.42px;"/>
        </g>
        <g transform="matrix(0.998494,0.054862,-0.054862,0.998494,-110.779,-16.2288)">
            <path d="M223.012,297.551c0.891,0.922 1.85,1.11 3.175,0c0.458,-0.258 0.987,-0.306 1.385,0c0.976,1.055 1.974,1.136 3.263,0c0.466,-0.247 1.231,-0.353 1.562,-0.036" style="fill:none;stroke:white;stroke-width:0.42px;"/>
        </g>
        <g transform="matrix(1,0,0,1,-34.8936,-2.4631)">
            <path d="M223.012,297.551c0.891,0.922 1.85,1.11 3.175,0" style="fill:none;stroke:white;stroke-width:0.42px;"/>
        </g>
        <g transform="matrix(1,0,0,1,-62.5036,-2.61547)">
            <path d="M148.892,295.15c-0.46,-0.328 -0.923,-0.381 -1.392,0c-1.038,0.787 -2.134,0.951 -3.167,0c-0.608,-0.563 -1.158,-0.39 -1.599,0c-0.985,0.771 -2.183,0.723 -2.901,-0.266c-0.433,-0.365 -0.909,-0.345 -1.421,0c-1.031,0.579 -1.849,0.291 -2.546,-0.326c-0.257,-0.513 -0.958,-0.45 -1.458,-0.188c-1.082,0.567 -1.82,0.356 -2.509,-0.818c-0.181,-0.43 -0.503,-0.726 -1.184,-0.681c-1.265,0.243 -1.981,-0.02 -2.072,-1.303c-0.123,-0.638 -0.37,-0.717 -0.845,-0.886c-1.548,0.119 -2.099,-0.694 -1.82,-2.252c0.097,-0.643 -0.153,-1.04 -0.819,-1.138c-1.156,-0.375 -1.699,-1.406 -1.082,-2.502c0.561,-0.61 0.475,-1.228 0,-1.521c-1.227,-0.431 -1.498,-2.294 -0.304,-3.111c0.639,-0.233 0.77,-0.848 0.304,-1.171c-0.676,-0.469 -0.005,-2.748 1.435,-2.813c0.355,-0.016 0.561,-0.429 0.466,-0.809c-0.265,-1.066 0.218,-2.165 1.82,-2.301c0.522,-0.045 0.923,-0.104 0.845,-0.821c0.196,-0.916 0.855,-1.345 2.072,-1.184c0.71,0.17 0.922,0.065 1.184,-0.52c-0.011,-0.658 1.587,-1.602 2.292,-1.042c0.51,0.406 1.018,0.557 1.522,0c0.447,-1.005 1.141,-1.553 2.447,-0.972c0.484,0.347 0.876,0.282 1.22,0" style="fill:none;stroke:white;stroke-width:0.42px;"/>
        </g>
        <g transform="matrix(1,0,0,1,-62.5036,-2.61547)">
            <path d="M128.995,282.729c-0.456,1.152 -0.328,2.339 0.64,3.247" style="fill:none;stroke:white;stroke-width:0.42px;"/>
        </g>
        <g transform="matrix(1,0,0,1,-62.5036,-2.61547)">
            <path d="M148.931,293.528c-0.365,0.306 -0.626,0.238 -1.086,0c-1.246,-0.955 -2.045,-1.42 -3.494,-0.305c-0.419,0.334 -0.963,0.299 -1.188,0c-0.772,-1.028 -1.936,-1.139 -2.849,-0.305c-0.428,0.534 -1.319,0.829 -1.561,0.305c-0.322,-0.697 -1.876,-1.251 -2.612,-0.305c-0.393,0.505 -1.125,0.102 -1.196,-0.303c-0.155,-0.895 -1.522,-1.39 -2.502,-0.919c-0.645,-0.106 -0.969,-0.392 -0.747,-0.984" style="fill:none;stroke:white;stroke-width:0.42px;"/>
        </g>
        <g transform="matrix(1,0,0,1,-62.5036,-2.61547)">
            <path d="M141.223,292.388c-0.36,-0.825 0.01,-1.521 1.294,-2.056l1.757,1.293c0.504,0.232 0.676,0.059 0.696,-0.298l-0.696,-1.758" style="fill:none;stroke:white;stroke-width:0.83px;stroke-linecap:butt;"/>
        </g>
        <g transform="matrix(1,0,0,1,-62.5036,-2.61547)">
            <path d="M143.942,293.316l0,-1.625" style="fill:none;stroke:white;stroke-width:0.83px;stroke-linecap:butt;"/>
        </g>
        <g transform="matrix(0.90186,0,0,0.90186,-34.6105,23.6745)">
            <path d="M280.841,299.932c-4.856,2.349 -10.291,3.638 -16.025,3.638c-20.71,0 -37.524,-16.815 -37.524,-37.525c0,-20.71 16.814,-37.524 37.524,-37.524c20.711,0 37.525,16.814 37.525,37.524c0,12.666 -4.277,23.006 -13.943,29.798" style="fill:none;stroke:white;stroke-width:0.92px;"/>
        </g>
        <g transform="matrix(0.161224,0,0,0.161224,161.522,220.717)">
            <path d="M241.877,295.735c-8.87,-6.866 -14.585,-17.616 -14.585,-29.69c0,-20.71 16.814,-37.524 37.524,-37.524c20.711,0 38.023,16.814 38.023,37.524" style="fill:none;stroke:white;stroke-width:5.17px;"/>
        </g>
        <g transform="matrix(1,0,0,1,-62.5036,-2.61547)">
            <path d="M272.813,266.155l1.493,7.466l23.673,35.082" style="fill:none;stroke:white;stroke-width:0.83px;stroke-linecap:butt;"/>
        </g>
        <g transform="matrix(1,0,0,1,-62.5036,-2.61547)">
            <path d="M262.91,270.881l4.907,5.379l20.251,31.16" style="fill:none;stroke:white;stroke-width:0.83px;stroke-linecap:butt;"/>
        </g>
        <g transform="matrix(0.77421,0,0,0.77421,-0.806894,57.6349)">
            <path d="M280.28,300.329c-3.75,1.736 -7.959,2.762 -12.476,3.027l-1.3,-1.857c-0.22,-3.271 -1.342,-4.351 -2.43,-4.392c-1.054,-0.038 -2.071,0.856 -2.45,4.392l-1.708,1.857c-14.213,-1.49 -25.131,-10.928 -30.063,-23.775l1.502,-0.918c2.966,-0.865 4.683,-1.054 4.175,-3.516c-0.52,-2.525 -1.954,-2.095 -5.224,-1.25l-2.268,-0.402c-0.489,-2.39 -0.746,-4.89 -0.746,-7.45c0,-11.245 4.957,-21.341 12.825,-28.191l1.575,0.702c1.482,2.86 3.202,3.897 4.591,2.98c2.228,-1.471 1.316,-2.785 0,-5.034l0,-2.909c5.748,-3.612 11.298,-5.072 18.533,-5.072c7.965,0 15.354,2.486 21.403,6.732l-0.853,1.972c-2.406,2.044 -1.993,4.392 -0.718,5.324c1.467,1.074 3.416,-0.354 4.988,-2.525l1.626,-0.583c6.842,6.794 11.079,16.208 11.079,26.604c0,3.251 -0.414,6.406 -1.238,9.404l-2.462,0.084c-5.01,-2.265 -8.074,1.82 -1.433,4.664l1.433,1.772c-2.739,6.038 -5.334,8.982 -10.169,13.044" style="fill:none;stroke:white;stroke-width:1.08px;"/>
        </g>
        <g transform="matrix(1,0,0,1,-62.5036,-2.61547)">
            <path d="M240.527,240.02c0.688,-1.04 1.926,-1.634 3.046,-1.122c0.504,0.231 1.025,0.467 1.476,-0.196c0.609,-0.892 2.152,-1.264 2.915,-0.825" style="fill:none;stroke:white;stroke-width:0.42px;"/>
        </g>
        <g transform="matrix(1,0,0,1,-62.1029,-3.12539)">
            <circle cx="266.549" cy="266.883" r="4.542" style="fill:none;stroke:white;stroke-width:0.42px;stroke-linecap:butt;"/>
        </g>
        <g transform="matrix(1,0,0,1,-62.5036,-2.61547)">
            <path d="M248.641,248.381c-4.875,0.492 -9.495,19.698 -6.171,21.019c2.681,1.066 16.479,-3.979 17.11,-6.637c0.871,-3.674 -8.023,-14.677 -10.939,-14.382Z" style="fill:none;stroke:white;stroke-width:0.83px;stroke-linecap:butt;"/>
        </g>
        <g transform="matrix(0.375864,-0.926675,0.926675,0.375864,-141.641,410.343)">
            <path d="M248.641,248.381c-4.875,0.492 -8.471,22.337 -4.898,22.509c2.719,0.13 14.105,-5.813 15.098,-7.782c1.701,-3.371 -7.284,-15.022 -10.2,-14.727Z" style="fill:none;stroke:white;stroke-width:0.83px;stroke-linecap:butt;"/>
        </g>
        <g transform="matrix(0.22568,0.974201,-0.974201,0.22568,401.542,-56.6483)">
            <path d="M249.516,247.775c-5.803,1.012 -9.436,21.889 -6.112,23.21c2.681,1.066 15.672,-5.634 16.302,-8.292c0.871,-3.673 -7.302,-15.422 -10.19,-14.918Z" style="fill:none;stroke:white;stroke-width:0.83px;stroke-linecap:butt;"/>
        </g>
        <g transform="matrix(-0.874477,0.485068,-0.485068,-0.874477,564.712,365.412)">
            <path d="M247.312,249.318c-3.595,-0.928 -9.797,19.074 -4.642,21.083c2.688,1.048 15.301,-5.26 15.111,-7.985c-0.254,-3.646 -7.631,-12.366 -10.469,-13.098Z" style="fill:none;stroke:white;stroke-width:0.83px;stroke-linecap:butt;"/>
        </g>
        <g transform="matrix(1,0,0,1,-62.5036,-2.61547)">
            <path d="M276.71,256.909c0,0 0.245,3.202 0,4.415c-0.213,1.052 -1.472,2.866 -1.472,2.866" style="fill:none;stroke:white;stroke-width:0.83px;stroke-linecap:butt;"/>
        </g>
        <g transform="matrix(1,0,0,1,-62.5036,-2.61547)">
            <path d="M274.618,272.245c0,0 12.289,2.065 13.554,4.182c1.266,2.117 -5.963,8.52 -5.963,8.52" style="fill:none;stroke:white;stroke-width:0.83px;"/>
        </g>
        <g transform="matrix(1,0,0,1,-62.5036,-2.61547)">
            <path d="M269.507,278.828c0,0 -1.614,8.688 -0.62,10.224c0.994,1.536 6.583,-1.007 6.583,-1.007" style="fill:none;stroke:white;stroke-width:0.83px;"/>
        </g>
        <g transform="matrix(1,0,0,1,-62.5036,-2.61547)">
            <path d="M241.838,263.15l5.109,-1.01c0,0 2.618,-0.662 3.006,-1.386c0.387,-0.724 -0.681,-2.957 -0.681,-2.957l-3.063,-7.24" style="fill:none;stroke:white;stroke-width:0.83px;"/>
        </g>
        <g transform="matrix(1,0,0,1,-62.5036,-2.61547)">
            <path d="M249.15,273.047l6.153,0l1.025,2.871l6.358,-2.871" style="fill:none;stroke:white;stroke-width:0.83px;stroke-linecap:butt;"/>
        </g>
        <g transform="matrix(1,0,0,1,-62.5036,-2.61547)">
            <path d="M263.916,256.435l1.846,-2.153l2.564,-12.716" style="fill:none;stroke:white;stroke-width:0.83px;stroke-linecap:butt;"/>
        </g>
        <g transform="matrix(1,0,0,1,-62.5036,-2.61547)">
            <path d="M276.222,250.898c-0.14,-2.5 0.107,-4.818 1.333,-7.384" style="fill:none;stroke:white;stroke-width:0.83px;stroke-linecap:butt;"/>
        </g>
        <g transform="matrix(1,0,0,1,-62.5036,-2.61547)">
            <path d="M267.68,244.982l-2.758,-3.53" style="fill:none;stroke:white;stroke-width:0.83px;stroke-linecap:butt;"/>
        </g>
        <g transform="matrix(1,0,0,1,-62.5036,-2.61547)">
            <path d="M257.972,242.555l6.84,12.466" style="fill:none;stroke:white;stroke-width:0.83px;stroke-linecap:butt;"/>
        </g>
        <g transform="matrix(1,0,0,1,-62.5036,-2.61547)">
            <path d="M260.587,232.962l-10.227,-13.905" style="fill:none;stroke:white;stroke-width:0.83px;stroke-linecap:butt;"/>
        </g>
        <g transform="matrix(1,0,0,1,-62.5036,-2.61547)">
            <path d="M253.446,235.051l-6.385,-11.619" style="fill:none;stroke:white;stroke-width:0.83px;"/>
        </g>
        <g transform="matrix(1,0,0,1,-62.5036,-2.61547)">
            <path d="M288.161,307.364l9.926,1.068l0.628,2.513l-12.124,-1.068l1.57,-2.513Z" style="fill:none;stroke:white;stroke-width:0.83px;"/>
        </g>
        <g transform="matrix(1,0,0,1,-62.5036,-2.61547)">
            <path d="M297.374,307.42l4.545,0.258l1.32,3.707c0.29,1.003 -0.103,1.558 -1.32,1.57l-18.972,-2.136c-0.88,-0.159 -0.925,-0.829 -0.439,-1.825l1.146,-2.524l3.861,0.284" style="fill:none;stroke:white;stroke-width:0.83px;"/>
        </g>
        <g transform="matrix(1,0,0,1,-62.5984,-2.37846)">
            <path d="M303.432,311.778l-0.352,3.644c0,0 0.026,0.955 -0.934,1.485c-0.487,0.269 -3.299,0 -3.299,0l-14.485,-1.485c0,0 -1.453,-0.184 -2.147,-0.31c-0.711,-0.129 -0.498,-1.712 -0.498,-1.712l0.498,-3.503" style="fill:none;stroke:white;stroke-width:0.83px;stroke-linecap:butt;"/>
        </g>
        <g transform="matrix(1,0,0,1,-62.5036,-2.61547)">
            <path d="M456.575,217.389l13.857,57.572" style="fill:none;stroke:white;stroke-width:0.83px;"/>
        </g>
        <g transform="matrix(1,0,0,1,-62.5036,-2.61547)">
            <path d="M469.718,216.961l-6.428,51.285" style="fill:none;stroke:white;stroke-width:0.83px;"/>
        </g>
        <g transform="matrix(1,0,0,1,-62.5036,-2.61547)">
            <path d="M483.861,220.246l-17.857,53.572" style="fill:none;stroke:white;stroke-width:0.83px;"/>
        </g>
        <g transform="matrix(1,0,0,1,-62.5036,-2.61547)">
            <path d="M443.004,220.389l28.428,55.429" style="fill:none;stroke:white;stroke-width:0.83px;"/>
        </g>
        <g transform="matrix(1,0,0,1,-62.5036,-2.61547)">
            <path d="M495.861,226.104l-25.286,48.857" style="fill:none;stroke:white;stroke-width:0.83px;"/>
        </g>
        <g transform="matrix(1,0,0,1,-62.5036,-2.61547)">
            <path d="M506.861,235.104l-33.143,43.285" style="fill:none;stroke:white;stroke-width:0.83px;"/>
        </g>
        <g transform="matrix(1,0,0,1,-62.5036,-2.61547)">
            <path d="M513.861,243.675l-47.143,30.571" style="fill:none;stroke:white;stroke-width:0.83px;"/>
        </g>
        <g transform="matrix(1,0,0,1,-62.5036,-2.61547)">
            <path d="M471.29,275.675l49.142,-19.571" style="fill:none;stroke:white;stroke-width:0.83px;"/>
        </g>
        <g transform="matrix(1,0,0,1,-62.5036,-2.61547)">
            <path d="M473.861,278.389l50.069,-7.748" style="fill:none;stroke:white;stroke-width:0.83px;"/>
        </g>
        <g transform="matrix(1,0,0,1,-62.5036,-2.61547)">
            <path d="M473.575,285.104l49.497,5.08" style="fill:none;stroke:white;stroke-width:0.83px;"/>
        </g>
        <g transform="matrix(1,0,0,1,-62.5036,-2.61547)">
            <path d="M474.171,279.279l44.17,25.644" style="fill:none;stroke:white;stroke-width:0.83px;"/>
        </g>
        <g transform="matrix(1,0,0,1,-62.5036,-2.61547)">
            <path d="M472.815,287.187l36.15,31.518" style="fill:none;stroke:white;stroke-width:0.83px;"/>
        </g>
        <g transform="matrix(1,0,0,1,-62.5036,-2.61547)">
            <path d="M473.493,285.154l16.041,47.219" style="fill:none;stroke:white;stroke-width:0.83px;"/>
        </g>
        <g transform="matrix(1,0,0,1,-62.5036,-2.61547)">
            <path d="M471.234,288.204l3.615,49.14" style="fill:none;stroke:white;stroke-width:0.83px;"/>
        </g>
        <g transform="matrix(1,0,0,1,-62.5036,-2.61547)">
            <path d="M461.406,287.526l-29.145,42.362" style="fill:none;stroke:white;stroke-width:0.83px;"/>
        </g>
        <g transform="matrix(1,0,0,1,-62.5036,-2.61547)">
            <path d="M462.197,288.091l-1.469,50.27" style="fill:none;stroke:white;stroke-width:0.83px;"/>
        </g>
        <g transform="matrix(1,0,0,1,-62.5036,-2.61547)">
            <path d="M459.259,284.363l-12.991,51.512" style="fill:none;stroke:white;stroke-width:0.83px;"/>
        </g>
        <g transform="matrix(1,0,0,1,-62.5036,-2.61547)">
            <path d="M464.249,289.54l-42.72,32.102" style="fill:none;stroke:white;stroke-width:0.83px;"/>
        </g>
        <g transform="matrix(1,0,0,1,-62.5036,-2.61547)">
            <path d="M419.269,235.448l35.472,34.681" style="fill:none;stroke:white;stroke-width:0.83px;"/>
        </g>
        <g transform="matrix(1,0,0,1,-62.5036,-2.61547)">
            <path d="M411.023,246.067l43.04,23.045" style="fill:none;stroke:white;stroke-width:0.83px;"/>
        </g>
        <g transform="matrix(1,0,0,1,-62.5036,-2.61547)">
            <path d="M405.262,259.284l49.366,10.845" style="fill:none;stroke:white;stroke-width:0.83px;"/>
        </g>
        <g transform="matrix(1,0,0,1,-62.5036,-2.61547)">
            <path d="M412.378,310.91l46.543,-29.597" style="fill:none;stroke:white;stroke-width:0.83px;"/>
        </g>
        <g transform="matrix(1,0,0,1,-62.5036,-2.61547)">
            <path d="M406.165,298.258l53.198,-18.998" style="fill:none;stroke:white;stroke-width:0.83px;"/>
        </g>
        <g transform="matrix(1,0,0,1,-62.5036,-2.61547)">
            <path d="M402.663,271.711l57.54,15.153" style="fill:none;stroke:white;stroke-width:0.83px;"/>
        </g>
        <g transform="matrix(1,0,0,1,-62.5036,-2.61547)">
            <path d="M403.115,286.396l55.707,-2.853" style="fill:none;stroke:white;stroke-width:0.83px;"/>
        </g>
        <g transform="matrix(1,0,0,1,-62.5036,-2.61547)">
            <path d="M398.294,154.976l-2.135,-0.792l-0.542,-3.554l-1.586,-2.7c-3.185,-0.909 -3.818,-5.332 -0.906,-7.381l0.906,-4.474l12.54,-2.534" style="fill:none;stroke:white;stroke-width:0.83px;"/>
        </g>
        <g transform="matrix(1,0,0,1,-62.5036,-2.61547)">
            <path d="M410.285,150.573c2.001,-1.239 3.675,-2.65 4.248,-4.644" style="fill:none;stroke:white;stroke-width:0.83px;"/>
        </g>
        <g transform="matrix(1,0,0,1,-62.5036,-2.61547)">
            <path d="M414.59,145.761c0,0 -3.982,-21.234 -4.094,-23.699c-0.178,-3.9 1.023,-4.733 -0.634,-8.252c0,0 -1.713,-3.193 -3.45,-3.129c-2.965,0.11 -2.005,3.97 -2.005,3.97l1.361,11.38l2.566,21.428c1.02,0.989 5.486,-0.336 6.256,-1.698Z" style="fill:none;stroke:white;stroke-width:0.83px;"/>
        </g>
        <g transform="matrix(1,0,0,1,-62.5036,-2.61547)">
            <path d="M394.757,135.876l-1.051,-4.728" style="fill:none;stroke:white;stroke-width:0.83px;"/>
        </g>
        <g transform="matrix(1,0,0,1,-62.5036,-2.61547)">
            <path d="M405.168,124.462l-13.42,2.626l0.955,4.203l13.276,-2.388" style="fill:none;stroke:white;stroke-width:0.83px;"/>
        </g>
        <g transform="matrix(1,0,0,1,-62.5036,-2.61547)">
            <path d="M405.537,110.939c-0.628,2.887 0.596,10.921 1.445,13.371c0.639,1.846 2.593,23.209 2.593,23.209" style="fill:none;stroke:white;stroke-width:0.42px;"/>
        </g>
        <g transform="matrix(1,0,0,1,-62.5036,-2.61547)">
            <path d="M392.845,126.774l-12.212,-64.116l10.408,-2.498l14.433,61.757" style="fill:none;stroke:white;stroke-width:0.83px;"/>
        </g>
        <g transform="matrix(1,0,0,1,-62.5036,-2.61547)">
            <path d="M376.143,58.2l0.791,4.928l18.616,-4.015c0,0 2,-1.003 1.4,-3.164c-0.634,-2.279 -3.407,-1.825 -3.407,-1.825l-17.4,4.076Z" style="fill:none;stroke:white;stroke-width:0.83px;"/>
        </g>
        <g transform="matrix(1,0,0,1,-62.5036,-2.61547)">
            <path d="M389.343,54.612l-9.074,-40.258" style="fill:none;stroke:white;stroke-width:0.83px;"/>
        </g>
        <g transform="matrix(1,0,0,1,-62.5036,-2.61547)">
            <path d="M371.952,18.372l8.064,38.669" style="fill:none;stroke:white;stroke-width:0.83px;"/>
        </g>
        <g transform="matrix(1.06532,0,0,1.06532,-86.8286,-3.78944)">
            <path d="M372.038,4.913c6.469,-2.652 8.785,3.517 8.766,5.664c-0.038,4.448 -2.171,5.183 -4.654,6.517c-2.625,1.409 -11.094,1.939 -11.094,1.939c0,0 -2.097,-0.235 -2.638,-1.086c-0.798,-1.255 1.319,-3.879 1.319,-3.879c0,0 5.116,-7.849 8.301,-9.155Z" style="fill:none;stroke:white;stroke-width:0.78px;"/>
        </g>
        <g transform="matrix(1,0,0,1,-62.5036,-2.61547)">
            <path d="M378.735,4.265c0,0 2.636,-0.384 3.305,0.708c0.669,1.092 0.709,5.844 0.709,5.844l-1.653,1.476" style="fill:none;stroke:white;stroke-width:0.83px;"/>
        </g>
    </g>
</svg>
